<svg width="24" height="24" viewBox="0 0 24 24" fill="none" xmlns="http://www.w3.org/2000/svg">
<path d="M1.56522 13.5652C0.700779 13.5652 0 12.8644 0 12C0 11.1356 0.700779 10.4348 1.56522 10.4348V13.5652ZM12 10.4348C12.8644 10.4348 13.5652 11.1356 13.5652 12C13.5652 12.8644 12.8644 13.5652 12 13.5652V10.4348ZM12 13.5652C11.1356 13.5652 10.4348 12.8644 10.4348 12C10.4348 11.1356 11.1356 10.4348 12 10.4348V13.5652ZM22.4348 10.4348C23.2992 10.4348 24 11.1356 24 12C24 12.8644 23.2992 13.5652 22.4348 13.5652V10.4348ZM13.5652 12C13.5652 12.8644 12.8644 13.5652 12 13.5652C11.1356 13.5652 10.4348 12.8644 10.4348 12H13.5652ZM10.4348 1.56522C10.4348 0.7008 11.1356 2.38419e-07 12 2.38419e-07C12.8644 2.38419e-07 13.5652 0.7008 13.5652 1.56522H10.4348ZM10.4348 12C10.4348 11.1356 11.1356 10.4348 12 10.4348C12.8644 10.4348 13.5652 11.1356 13.5652 12H10.4348ZM13.5652 22.4348C13.5652 23.2992 12.8644 24 12 24C11.1356 24 10.4348 23.2992 10.4348 22.4348H13.5652ZM1.56522 10.4348H12V13.5652H1.56522V10.4348ZM12 10.4348H22.4348V13.5652H12V10.4348ZM10.4348 12V11.9979C10.4348 11.9977 10.4348 11.9954 10.4348 11.9954C10.4348 11.9956 10.4348 11.9952 10.4348 11.9954C10.4348 11.9954 10.4348 11.9931 10.4348 11.9929C10.4348 11.9931 10.4348 11.9927 10.4348 11.9929C10.4348 11.9927 10.4348 11.991 10.4348 11.9908C10.4348 11.9906 10.4348 11.9887 10.4348 11.9885C10.4348 11.9883 10.4348 11.9866 10.4348 11.9864C10.4348 11.9862 10.4348 11.9843 10.4348 11.9839C10.4348 11.9837 10.4348 11.9818 10.4348 11.9814C10.4348 11.9812 10.4348 11.9789 10.4348 11.9787C10.4348 11.9791 10.4348 11.9783 10.4348 11.9787C10.4348 11.9783 10.4348 11.977 10.4348 11.9766C10.4348 11.977 10.4348 11.9762 10.4348 11.9766C10.4348 11.9762 10.4348 11.9747 10.4348 11.9745C10.4348 11.975 10.4348 11.9741 10.4348 11.9745C10.4348 11.9741 10.4348 11.9727 10.4348 11.9722C10.4348 11.9727 10.4348 11.9718 10.4348 11.9722C10.4348 11.9718 10.4348 11.9702 10.4348 11.9697C10.4348 11.9702 10.4348 11.9693 10.4348 11.9697C10.4348 11.9693 10.4348 11.9677 10.4348 11.9672C10.4348 11.9679 10.4348 11.9668 10.4348 11.9672C10.4348 11.9668 10.4348 11.9649 10.4348 11.9645C10.4348 11.9649 10.4348 11.9641 10.4348 11.9645C10.4348 11.9641 10.4348 11.9622 10.4348 11.9616C10.4348 11.9622 10.4348 11.9612 10.4348 11.9616C10.4348 11.9612 10.4348 11.9591 10.4348 11.9587C10.4348 11.9591 10.4348 11.9583 10.4348 11.9587C10.4348 11.9581 10.4348 11.9562 10.4348 11.9555C10.4348 11.9562 10.4348 11.9549 10.4348 11.9555C10.4348 11.9551 10.4348 11.9528 10.4348 11.9522C10.4348 11.9528 10.4348 11.9518 10.4348 11.9522C10.4348 11.9516 10.4348 11.9495 10.4348 11.9489C10.4348 11.9495 10.4348 11.9482 10.4348 11.9489C10.4348 11.9482 10.4348 11.9457 10.4348 11.9451C10.4348 11.9457 10.4348 11.9445 10.4348 11.9451C10.4348 11.9445 10.4348 11.942 10.4348 11.9414C10.4348 11.942 10.4348 11.9407 10.4348 11.9414C10.4348 11.9407 10.4348 11.9382 10.4348 11.9374C10.4348 11.938 10.4348 11.9368 10.4348 11.9374C10.4348 11.9366 10.4348 11.9341 10.4348 11.9334C10.4348 11.9326 10.4348 11.932 10.4348 11.9311C10.4348 11.9305 10.4348 11.9299 10.4348 11.929C10.4348 11.9282 10.4348 11.9276 10.4348 11.9267C10.4348 11.9261 10.4348 11.9253 10.4348 11.9247C10.4348 11.9238 10.4348 11.923 10.4348 11.9222C10.4348 11.9215 10.4348 11.9207 10.4348 11.9199C10.4348 11.919 10.4348 11.9184 10.4348 11.9176C10.4348 11.9167 10.4348 11.9159 10.4348 11.9151C10.4348 11.9142 10.4348 11.9134 10.4348 11.9126C10.4348 11.9117 10.4348 11.9109 10.4348 11.9101C10.4348 11.9092 10.4348 11.9082 10.4348 11.9073C10.4348 11.9065 10.4348 11.9057 10.4348 11.9048C10.4348 11.9038 10.4348 11.903 10.4348 11.9021C10.4348 11.9011 10.4348 11.9002 10.4348 11.8994C10.4348 11.8984 10.4348 11.8975 10.4348 11.8965C10.4348 11.8957 10.4348 11.8946 10.4348 11.8938C10.4348 11.8927 10.4348 11.8917 10.4348 11.8909C10.4348 11.8898 10.4348 11.8888 10.4348 11.8877C10.4348 11.8869 10.4348 11.8858 10.4348 11.8848C10.4348 11.8838 10.4348 11.8827 10.4348 11.8817C10.4348 11.8808 10.4348 11.8798 10.4348 11.8787C10.4348 11.8777 10.4348 11.8765 10.4348 11.8754C10.4348 11.8744 10.4348 11.8733 10.4348 11.8723C10.4348 11.8712 10.4348 11.8702 10.4348 11.8689C10.4348 11.8679 10.4348 11.8669 10.4348 11.8656C10.4348 11.8646 10.4348 11.8633 10.4348 11.8623C10.4348 11.8612 10.4348 11.86 10.4348 11.8589C10.4348 11.8577 10.4348 11.8564 10.4348 11.8554C10.4348 11.8541 10.4348 11.8529 10.4348 11.8518C10.4348 11.8506 10.4348 11.8493 10.4348 11.8481C10.4348 11.847 10.4348 11.8458 10.4348 11.8445C10.4348 11.8433 10.4348 11.842 10.4348 11.8408C10.4348 11.8395 10.4348 11.8383 10.4348 11.837C10.4348 11.8358 10.4348 11.8343 10.4348 11.833C10.4348 11.8318 10.4348 11.8305 10.4348 11.8293C10.4348 11.8278 10.4348 11.8266 10.4348 11.8253C10.4348 11.8239 10.4348 11.8226 10.4348 11.8211C10.4348 11.8199 10.4348 11.8184 10.4348 11.8172C10.4348 11.8157 10.4348 11.8143 10.4348 11.813C10.4348 11.8115 10.4348 11.8101 10.4348 11.8086C10.4348 11.8074 10.4348 11.8059 10.4348 11.8045C10.4348 11.803 10.4348 11.8015 10.4348 11.8001C10.4348 11.7986 10.4348 11.7971 10.4348 11.7957C10.4348 11.7942 10.4348 11.7928 10.4348 11.7913C10.4348 11.7896 10.4348 11.7882 10.4348 11.7867C10.4348 11.785 10.4348 11.7836 10.4348 11.7821C10.4348 11.7805 10.4348 11.779 10.4348 11.7773C10.4348 11.7759 10.4348 11.7742 10.4348 11.7727C10.4348 11.7711 10.4348 11.7694 10.4348 11.7679C10.4348 11.7663 10.4348 11.7646 10.4348 11.7629C10.4348 11.7613 10.4348 11.7598 10.4348 11.7581C10.4348 11.7565 10.4348 11.7548 10.4348 11.7531C10.4348 11.7514 10.4348 11.7496 10.4348 11.7479C10.4348 11.7462 10.4348 11.7446 10.4348 11.7429C10.4348 11.741 10.4348 11.7393 10.4348 11.7377C10.4348 11.7358 10.4348 11.7341 10.4348 11.7322C10.4348 11.7306 10.4348 11.7287 10.4348 11.727C10.4348 11.7251 10.4348 11.7233 10.4348 11.7216C10.4348 11.7197 10.4348 11.7178 10.4348 11.716C10.4348 11.7143 10.4348 11.7124 10.4348 11.7105C10.4348 11.7087 10.4348 11.7068 10.4348 11.7049C10.4348 11.703 10.4348 11.7011 10.4348 11.6991C10.4348 11.6972 10.4348 11.6953 10.4348 11.6934C10.4348 11.6913 10.4348 11.6895 10.4348 11.6876C10.4348 11.6855 10.4348 11.6836 10.4348 11.6815C10.4348 11.6797 10.4348 11.6776 10.4348 11.6755C10.4348 11.6736 10.4348 11.6715 10.4348 11.6694C10.4348 11.6673 10.4348 11.6655 10.4348 11.6634C10.4348 11.6613 10.4348 11.6592 10.4348 11.6571C10.4348 11.655 10.4348 11.6529 10.4348 11.6509C10.4348 11.6486 10.4348 11.6465 10.4348 11.6444C10.4348 11.6423 10.4348 11.64 10.4348 11.6379C10.4348 11.6358 10.4348 11.6335 10.4348 11.6314C10.4348 11.6291 10.4348 11.6271 10.4348 11.6248C10.4348 11.6225 10.4348 11.6204 10.4348 11.6181C10.4348 11.6158 10.4348 11.6135 10.4348 11.6112C10.4348 11.6089 10.4348 11.6066 10.4348 11.6043C10.4348 11.602 10.4348 11.5997 10.4348 11.5974C10.4348 11.5951 10.4348 11.5928 10.4348 11.5905C10.4348 11.588 10.4348 11.5857 10.4348 11.5832C10.4348 11.5809 10.4348 11.5786 10.4348 11.5761C10.4348 11.5738 10.4348 11.5713 10.4348 11.5688C10.4348 11.5665 10.4348 11.564 10.4348 11.5615C10.4348 11.559 10.4348 11.5565 10.4348 11.554C10.4348 11.5515 10.4348 11.549 10.4348 11.5465C10.4348 11.544 10.4348 11.5415 10.4348 11.539C10.4348 11.5365 10.4348 11.534 10.4348 11.5313C10.4348 11.5288 10.4348 11.5261 10.4348 11.5235C10.4348 11.5208 10.4348 11.5183 10.4348 11.5156C10.4348 11.5131 10.4348 11.5104 10.4348 11.5077C10.4348 11.5052 10.4348 11.5025 10.4348 11.4998C10.4348 11.497 10.4348 11.4943 10.4348 11.4916C10.4348 11.4889 10.4348 11.4862 10.4348 11.4835C10.4348 11.4808 10.4348 11.4778 10.4348 11.4751C10.4348 11.4724 10.4348 11.4695 10.4348 11.4668C10.4348 11.4639 10.4348 11.4611 10.4348 11.4582C10.4348 11.4555 10.4348 11.4526 10.4348 11.4497C10.4348 11.447 10.4348 11.444 10.4348 11.4411C10.4348 11.4382 10.4348 11.4353 10.4348 11.4323C10.4348 11.4294 10.4348 11.4265 10.4348 11.4236C10.4348 11.4207 10.4348 11.4175 10.4348 11.4146C10.4348 11.4117 10.4348 11.4086 10.4348 11.4056C10.4348 11.4025 10.4348 11.3996 10.4348 11.3965C10.4348 11.3935 10.4348 11.3904 10.4348 11.3873C10.4348 11.3841 10.4348 11.3812 10.4348 11.3781C10.4348 11.375 10.4348 11.3718 10.4348 11.3687C10.4348 11.3656 10.4348 11.3624 10.4348 11.3591C10.4348 11.356 10.4348 11.3528 10.4348 11.3497C10.4348 11.3464 10.4348 11.3432 10.4348 11.3399C10.4348 11.3368 10.4348 11.3334 10.4348 11.3303C10.4348 11.327 10.4348 11.3236 10.4348 11.3203C10.4348 11.3171 10.4348 11.3138 10.4348 11.3105C10.4348 11.3071 10.4348 11.3038 10.4348 11.3005C10.4348 11.2971 10.4348 11.2936 10.4348 11.2902C10.4348 11.2869 10.4348 11.2833 10.4348 11.28C10.4348 11.2767 10.4348 11.2731 10.4348 11.2696C10.4348 11.2662 10.4348 11.2627 10.4348 11.2591C10.4348 11.2558 10.4348 11.2522 10.4348 11.2487C10.4348 11.2451 10.4348 11.2416 10.4348 11.2381C10.4348 11.2345 10.4348 11.231 10.4348 11.2274C10.4348 11.2237 10.4348 11.2201 10.4348 11.2166C10.4348 11.2128 10.4348 11.2093 10.4348 11.2055C10.4348 11.2019 10.4348 11.1982 10.4348 11.1946C10.4348 11.1909 10.4348 11.1871 10.4348 11.1834C10.4348 11.1796 10.4348 11.1759 10.4348 11.1721C10.4348 11.1683 10.4348 11.1646 10.4348 11.1608C10.4348 11.1571 10.4348 11.1533 10.4348 11.1494C10.4348 11.1456 10.4348 11.1416 10.4348 11.1379C10.4348 11.1339 10.4348 11.1302 10.4348 11.1262C10.4348 11.1222 10.4348 11.1185 10.4348 11.1145C10.4348 11.1105 10.4348 11.1066 10.4348 11.1026C10.4348 11.0986 10.4348 11.0947 10.4348 11.0905C10.4348 11.0865 10.4348 11.0826 10.4348 11.0786C10.4348 11.0744 10.4348 11.0705 10.4348 11.0663C10.4348 11.0623 10.4348 11.0582 10.4348 11.054C10.4348 11.05 10.4348 11.0458 10.4348 11.0417C10.4348 11.0375 10.4348 11.0333 10.4348 11.0291C10.4348 11.025 10.4348 11.0208 10.4348 11.0166C10.4348 11.0125 10.4348 11.0081 10.4348 11.0039C10.4348 10.9995 10.4348 10.9953 10.4348 10.991C10.4348 10.9868 10.4348 10.9824 10.4348 10.978C10.4348 10.9738 10.4348 10.9695 10.4348 10.9651C10.4348 10.9607 10.4348 10.9563 10.4348 10.9519C10.4348 10.9475 10.4348 10.9432 10.4348 10.9386C10.4348 10.9342 10.4348 10.9298 10.4348 10.9252C10.4348 10.9208 10.4348 10.9162 10.4348 10.9119C10.4348 10.9073 10.4348 10.9027 10.4348 10.8981C10.4348 10.8937 10.4348 10.8891 10.4348 10.8845C10.4348 10.8799 10.4348 10.8753 10.4348 10.8705C10.4348 10.8659 10.4348 10.8614 10.4348 10.8568C10.4348 10.852 10.4348 10.8474 10.4348 10.8426C10.4348 10.838 10.4348 10.8332 10.4348 10.8284C10.4348 10.8238 10.4348 10.819 10.4348 10.8142C10.4348 10.8094 10.4348 10.8046 10.4348 10.7998C10.4348 10.795 10.4348 10.7902 10.4348 10.7852C10.4348 10.7804 10.4348 10.7756 10.4348 10.7706C10.4348 10.7658 10.4348 10.7608 10.4348 10.7558C10.4348 10.751 10.4348 10.7459 10.4348 10.7409C10.4348 10.7359 10.4348 10.7309 10.4348 10.7259C10.4348 10.7209 10.4348 10.7159 10.4348 10.7109C10.4348 10.7059 10.4348 10.7007 10.4348 10.6957C10.4348 10.6906 10.4348 10.6854 10.4348 10.6802C10.4348 10.6752 10.4348 10.67 10.4348 10.6648C10.4348 10.6598 10.4348 10.6545 10.4348 10.6493C10.4348 10.6441 10.4348 10.6389 10.4348 10.6335C10.4348 10.6282 10.4348 10.623 10.4348 10.6178C10.4348 10.6124 10.4348 10.6072 10.4348 10.6017C10.4348 10.5965 10.4348 10.5911 10.4348 10.5857C10.4348 10.5802 10.4348 10.575 10.4348 10.5696C10.4348 10.5642 10.4348 10.5587 10.4348 10.5531C10.4348 10.5477 10.4348 10.5423 10.4348 10.5368C10.4348 10.5312 10.4348 10.5258 10.4348 10.5201C10.4348 10.5147 10.4348 10.5091 10.4348 10.5034C10.4348 10.4978 10.4348 10.4924 10.4348 10.4867C10.4348 10.4811 10.4348 10.4755 10.4348 10.4698C10.4348 10.464 10.4348 10.4584 10.4348 10.4527C10.4348 10.4469 10.4348 10.4413 10.4348 10.4354C10.4348 10.4298 10.4348 10.4239 10.4348 10.4181C10.4348 10.4125 10.4348 10.4066 10.4348 10.4008C10.4348 10.3949 10.4348 10.3891 10.4348 10.3832C10.4348 10.3772 10.4348 10.3713 10.4348 10.3655C10.4348 10.3594 10.4348 10.3536 10.4348 10.3475C10.4348 10.3417 10.4348 10.3357 10.4348 10.3296C10.4348 10.3235 10.4348 10.3177 10.4348 10.3117C10.4348 10.3056 10.4348 10.2993 10.4348 10.2933C10.4348 10.2872 10.4348 10.2812 10.4348 10.2749C10.4348 10.2689 10.4348 10.2626 10.4348 10.2566C10.4348 10.2503 10.4348 10.244 10.4348 10.238C10.4348 10.2317 10.4348 10.2255 10.4348 10.2192C10.4348 10.2129 10.4348 10.2067 10.4348 10.2002C10.4348 10.1939 10.4348 10.1877 10.4348 10.1812C10.4348 10.175 10.4348 10.1685 10.4348 10.162C10.4348 10.1558 10.4348 10.1493 10.4348 10.1428C10.4348 10.1363 10.4348 10.1299 10.4348 10.1234C10.4348 10.1169 10.4348 10.1105 10.4348 10.1038C10.4348 10.0973 10.4348 10.0909 10.4348 10.0842C10.4348 10.0777 10.4348 10.071 10.4348 10.0643C10.4348 10.0577 10.4348 10.051 10.4348 10.0443C10.4348 10.0378 10.4348 10.031 10.4348 10.0243C10.4348 10.0176 10.4348 10.0109 10.4348 10.004C10.4348 9.99736 10.4348 9.99047 10.4348 9.98379C10.4348 9.97691 10.4348 9.97002 10.4348 9.96313C10.4348 9.95645 10.4348 9.94957 10.4348 9.94268C10.4348 9.93558 10.4348 9.9287 10.4348 9.92181C10.4348 9.91492 10.4348 9.90783 10.4348 9.90094C10.4348 9.89384 10.4348 9.88696 10.4348 9.87986C10.4348 9.87277 10.4348 9.86567 10.4348 9.85857C10.4348 9.85148 10.4348 9.84438 10.4348 9.83729C10.4348 9.83019 10.4348 9.82289 10.4348 9.81579C10.4348 9.8087 10.4348 9.80139 10.4348 9.79409C10.4348 9.78699 10.4348 9.77969 10.4348 9.77238C10.4348 9.76508 10.4348 9.75777 10.4348 9.75047C10.4348 9.74317 10.4348 9.73586 10.4348 9.72835C10.4348 9.72104 10.4348 9.71374 10.4348 9.70623C10.4348 9.69871 10.4348 9.69141 10.4348 9.6839C10.4348 9.67638 10.4348 9.66887 10.4348 9.66136C10.4348 9.65384 10.4348 9.64633 10.4348 9.63882C10.4348 9.6313 10.4348 9.62358 10.4348 9.61607C10.4348 9.60835 10.4348 9.60083 10.4348 9.59311C10.4348 9.58539 10.4348 9.57767 10.4348 9.56995C10.4348 9.56223 10.4348 9.5545 10.4348 9.54678C10.4348 9.53906 10.4348 9.53134 10.4348 9.52341C10.4348 9.51569 10.4348 9.50776 10.4348 9.49983C10.4348 9.4921 10.4348 9.48417 10.4348 9.47624C10.4348 9.46831 10.4348 9.46038 10.4348 9.45245C10.4348 9.44452 10.4348 9.43659 10.4348 9.42845C10.4348 9.42052 10.4348 9.41238 10.4348 9.40445C10.4348 9.39631 10.4348 9.38817 10.4348 9.38004C10.4348 9.37211 10.4348 9.36396 10.4348 9.35562C10.4348 9.34748 10.4348 9.33934 10.4348 9.3312C10.4348 9.32285 10.4348 9.31471 10.4348 9.30637C10.4348 9.29823 10.4348 9.28988 10.4348 9.28153C10.4348 9.27318 10.4348 9.26483 10.4348 9.25649C10.4348 9.24814 10.4348 9.23979 10.4348 9.23144C10.4348 9.22289 10.4348 9.21454 10.4348 9.20598C10.4348 9.19763 10.4348 9.18908 10.4348 9.18052C10.4348 9.17217 10.4348 9.16362 10.4348 9.15506C10.4348 9.1463 10.4348 9.13774 10.4348 9.12918C10.4348 9.12063 10.4348 9.11186 10.4348 9.10331C10.4348 9.09454 10.4348 9.08577 10.4348 9.07722C10.4348 9.06845 10.4348 9.05969 10.4348 9.05092C10.4348 9.04216 10.4348 9.03339 10.4348 9.02442C10.4348 9.01565 10.4348 9.00689 10.4348 8.99791C10.4348 8.98894 10.4348 8.98017 10.4348 8.9712C10.4348 8.96223 10.4348 8.95325 10.4348 8.94428C10.4348 8.9353 10.4348 8.92633 10.4348 8.91736C10.4348 8.90817 10.4348 8.8992 10.4348 8.89002C10.4348 8.88104 10.4348 8.87186 10.4348 8.86268C10.4348 8.8535 10.4348 8.84431 10.4348 8.83513C10.4348 8.82595 10.4348 8.81676 10.4348 8.80758C10.4348 8.79819 10.4348 8.78901 10.4348 8.77962C10.4348 8.77043 10.4348 8.76104 10.4348 8.75165C10.4348 8.74226 10.4348 8.73287 10.4348 8.72348C10.4348 8.71409 10.4348 8.7047 10.4348 8.6951C10.4348 8.6857 10.4348 8.6761 10.4348 8.66671C10.4348 8.65711 10.4348 8.64751 10.4348 8.63812C10.4348 8.62852 10.4348 8.61892 10.4348 8.60911C10.4348 8.59951 10.4348 8.58991 10.4348 8.58031C10.4348 8.5705 10.4348 8.5609 10.4348 8.5511C10.4348 8.54129 10.4348 8.53148 10.4348 8.52167C10.4348 8.51207 10.4348 8.50205 10.4348 8.49224C10.4348 8.48243 10.4348 8.47263 10.4348 8.46261C10.4348 8.4528 10.4348 8.44278 10.4348 8.43277C10.4348 8.42296 10.4348 8.41294 10.4348 8.40292C10.4348 8.3929 10.4348 8.38289 10.4348 8.37266C10.4348 8.36264 10.4348 8.35263 10.4348 8.3424C10.4348 8.33217 10.4348 8.32216 10.4348 8.31193C10.4348 8.3017 10.4348 8.29148 10.4348 8.28125C10.4348 8.27103 10.4348 8.2608 10.4348 8.25037C10.4348 8.24014 10.4348 8.22991 10.4348 8.21948C10.4348 8.20904 10.4348 8.19882 10.4348 8.18838C10.4348 8.17795 10.4348 8.16751 10.4348 8.15708C10.4348 8.14643 10.4348 8.136 10.4348 8.12557C10.4348 8.11492 10.4348 8.10449 10.4348 8.09384C10.4348 8.0832 10.4348 8.07256 10.4348 8.06191C10.4348 8.05127 10.4348 8.04063 10.4348 8.02998C10.4348 8.01934 10.4348 8.00849 10.4348 7.99784C10.4348 7.98699 10.4348 7.97614 10.4348 7.9655C10.4348 7.95464 10.4348 7.94379 10.4348 7.93294C10.4348 7.92209 10.4348 7.91103 10.4348 7.90017C10.4348 7.88932 10.4348 7.87826 10.4348 7.8672C10.4348 7.85635 10.4348 7.84529 10.4348 7.83423C10.4348 7.82316 10.4348 7.8121 10.4348 7.80104C10.4348 7.78977 10.4348 7.77871 10.4348 7.76765C10.4348 7.75638 10.4348 7.74511 10.4348 7.73405C10.4348 7.72278 10.4348 7.71151 10.4348 7.70024C10.4348 7.68897 10.4348 7.6775 10.4348 7.66623C10.4348 7.65496 10.4348 7.64348 10.4348 7.63221C10.4348 7.62073 10.4348 7.60925 10.4348 7.59777C10.4348 7.5863 10.4348 7.57482 10.4348 7.56334C10.4348 7.55186 10.4348 7.54017 10.4348 7.5287C10.4348 7.51701 10.4348 7.50553 10.4348 7.49384C10.4348 7.48216 10.4348 7.47047 10.4348 7.45878C10.4348 7.4471 10.4348 7.43541 10.4348 7.42351C10.4348 7.41183 10.4348 7.40014 10.4348 7.38824C10.4348 7.37635 10.4348 7.36445 10.4348 7.35277C10.4348 7.34087 10.4348 7.32876 10.4348 7.31687C10.4348 7.30497 10.4348 7.29308 10.4348 7.28097C10.4348 7.26908 10.4348 7.25697 10.4348 7.24487C10.4348 7.23277 10.4348 7.22066 10.4348 7.20856C10.4348 7.19645 10.4348 7.18435 10.4348 7.17203C10.4348 7.15993 10.4348 7.14762 10.4348 7.13551C10.4348 7.1232 10.4348 7.11089 10.4348 7.09857C10.4348 7.08626 10.4348 7.07395 10.4348 7.06164C10.4348 7.04911 10.4348 7.0368 10.4348 7.02428C10.4348 7.01197 10.4348 6.99944 10.4348 6.98692C10.4348 6.9744 10.4348 6.96188 10.4348 6.94936C10.4348 6.93683 10.4348 6.9241 10.4348 6.91158C10.4348 6.89885 10.4348 6.88633 10.4348 6.8736C10.4348 6.86087 10.4348 6.84814 10.4348 6.83541C10.4348 6.82268 10.4348 6.80974 10.4348 6.79701C10.4348 6.78428 10.4348 6.77134 10.4348 6.7584C10.4348 6.74567 10.4348 6.73273 10.4348 6.71979C10.4348 6.70685 10.4348 6.69391 10.4348 6.68076C10.4348 6.66783 10.4348 6.65489 10.4348 6.64174C10.4348 6.62859 10.4348 6.61565 10.4348 6.6025C10.4348 6.58936 10.4348 6.57621 10.4348 6.56285C10.4348 6.5497 10.4348 6.53656 10.4348 6.5232C10.4348 6.51005 10.4348 6.4967 10.4348 6.48334C10.4348 6.46998 10.4348 6.45663 10.4348 6.44327C10.4348 6.42991 10.4348 6.41656 10.4348 6.40299C10.4348 6.38963 10.4348 6.37607 10.4348 6.36251C10.4348 6.34915 10.4348 6.33558 10.4348 6.32181C10.4348 6.30824 10.4348 6.29468 10.4348 6.28111C10.4348 6.26734 10.4348 6.25377 10.4348 6.24C10.4348 6.22623 10.4348 6.21245 10.4348 6.19868C10.4348 6.1849 10.4348 6.17113 10.4348 6.15736C10.4348 6.14358 10.4348 6.1296 10.4348 6.11562C10.4348 6.10184 10.4348 6.08786 10.4348 6.07388C10.4348 6.0599 10.4348 6.04591 10.4348 6.03193C10.4348 6.01774 10.4348 6.00376 10.4348 5.98957C10.4348 5.97558 10.4348 5.96139 10.4348 5.9472C10.4348 5.93301 10.4348 5.91882 10.4348 5.90463C10.4348 5.89023 10.4348 5.87603 10.4348 5.86163C10.4348 5.84744 10.4348 5.83304 10.4348 5.81864C10.4348 5.80424 10.4348 5.78984 10.4348 5.77544C10.4348 5.76104 10.4348 5.74664 10.4348 5.73204C10.4348 5.71764 10.4348 5.70303 10.4348 5.68842C10.4348 5.67381 10.4348 5.6592 10.4348 5.64459C10.4348 5.62998 10.4348 5.61537 10.4348 5.60056C10.4348 5.58595 10.4348 5.57113 10.4348 5.55631C10.4348 5.5415 10.4348 5.52668 10.4348 5.51186C10.4348 5.49704 10.4348 5.48223 10.4348 5.4672C10.4348 5.45238 10.4348 5.43736 10.4348 5.42233C10.4348 5.40751 10.4348 5.39249 10.4348 5.37725C10.4348 5.36223 10.4348 5.3472 10.4348 5.33217C10.4348 5.31694 10.4348 5.30191 10.4348 5.28668C10.4348 5.27144 10.4348 5.25621 10.4348 5.24097C10.4348 5.22574 10.4348 5.2105 10.4348 5.19506C10.4348 5.17983 10.4348 5.16438 10.4348 5.14894C10.4348 5.13371 10.4348 5.11826 10.4348 5.10282C10.4348 5.08717 10.4348 5.07172 10.4348 5.05628C10.4348 5.04063 10.4348 5.02518 10.4348 5.00953C10.4348 4.99388 10.4348 4.97823 10.4348 4.96257C10.4348 4.94692 10.4348 4.93127 10.4348 4.91541C10.4348 4.89976 10.4348 4.8839 10.4348 4.86803C10.4348 4.85238 10.4348 4.83652 10.4348 4.82066C10.4348 4.8048 10.4348 4.78873 10.4348 4.77287C10.4348 4.7568 10.4348 4.74094 10.4348 4.72487C10.4348 4.7088 10.4348 4.69273 10.4348 4.67666C10.4348 4.66059 10.4348 4.64452 10.4348 4.62824C10.4348 4.61217 10.4348 4.5959 10.4348 4.57962C10.4348 4.56355 10.4348 4.54727 10.4348 4.53078C10.4348 4.5145 10.4348 4.49823 10.4348 4.48174C10.4348 4.46546 10.4348 4.44897 10.4348 4.4327C10.4348 4.41621 10.4348 4.39972 10.4348 4.38323C10.4348 4.36654 10.4348 4.35005 10.4348 4.33336C10.4348 4.31687 10.4348 4.30017 10.4348 4.28348C10.4348 4.26699 10.4348 4.2503 10.4348 4.23339C10.4348 4.2167 10.4348 4.2 10.4348 4.1831C10.4348 4.1664 10.4348 4.1495 10.4348 4.13259C10.4348 4.11569 10.4348 4.09878 10.4348 4.08188C10.4348 4.06497 10.4348 4.04786 10.4348 4.03096C10.4348 4.01384 10.4348 3.99673 10.4348 3.97962C10.4348 3.96251 10.4348 3.94539 10.4348 3.92828C10.4348 3.91117 10.4348 3.89384 10.4348 3.87673C10.4348 3.85941 10.4348 3.84209 10.4348 3.82476C10.4348 3.80744 10.4348 3.79012 10.4348 3.7728C10.4348 3.75527 10.4348 3.73795 10.4348 3.72042C10.4348 3.70289 10.4348 3.68536 10.4348 3.66783C10.4348 3.6503 10.4348 3.63277 10.4348 3.61523C10.4348 3.5975 10.4348 3.57996 10.4348 3.56223C10.4348 3.54449 10.4348 3.52675 10.4348 3.50901C10.4348 3.49127 10.4348 3.47353 10.4348 3.45558C10.4348 3.43784 10.4348 3.4199 10.4348 3.40195C10.4348 3.384 10.4348 3.36605 10.4348 3.3481C10.4348 3.33016 10.4348 3.31221 10.4348 3.29405C10.4348 3.2761 10.4348 3.25795 10.4348 3.23979C10.4348 3.22164 10.4348 3.20348 10.4348 3.18532C10.4348 3.16696 10.4348 3.1488 10.4348 3.13043C10.4348 3.11228 10.4348 3.09391 10.4348 3.07555C10.4348 3.05718 10.4348 3.03882 10.4348 3.02025C10.4348 3.00188 10.4348 2.98351 10.4348 2.96494C10.4348 2.94637 10.4348 2.92779 10.4348 2.90922C10.4348 2.89064 10.4348 2.87207 10.4348 2.85329C10.4348 2.83472 10.4348 2.81593 10.4348 2.79715C10.4348 2.77857 10.4348 2.75979 10.4348 2.7408C10.4348 2.72202 10.4348 2.70323 10.4348 2.68424C10.4348 2.66546 10.4348 2.64647 10.4348 2.62748C10.4348 2.60849 10.4348 2.5895 10.4348 2.57051C10.4348 2.55152 10.4348 2.53231 10.4348 2.51332C10.4348 2.49412 10.4348 2.47492 10.4348 2.45572C10.4348 2.43652 10.4348 2.41732 10.4348 2.39791C10.4348 2.37871 10.4348 2.3593 10.4348 2.3401C10.4348 2.3207 10.4348 2.30129 10.4348 2.28188C10.4348 2.26247 10.4348 2.24285 10.4348 2.22344C10.4348 2.20382 10.4348 2.18442 10.4348 2.1648C10.4348 2.14518 10.4348 2.12557 10.4348 2.10595C10.4348 2.08612 10.4348 2.0665 10.4348 2.04668C10.4348 2.02706 10.4348 2.00723 10.4348 1.98741C10.4348 1.96758 10.4348 1.94776 10.4348 1.92772C10.4348 1.9079 10.4348 1.88786 10.4348 1.86803C10.4348 1.848 10.4348 1.82797 10.4348 1.80793C10.4348 1.7879 10.4348 1.76765 10.4348 1.74762C10.4348 1.72738 10.4348 1.70734 10.4348 1.68709C10.4348 1.66685 10.4348 1.64661 10.4348 1.62616C10.4348 1.60591 10.4348 1.58567 10.4348 1.56522H13.5652C13.5652 1.58567 13.5652 1.60591 13.5652 1.62616C13.5652 1.64661 13.5652 1.66685 13.5652 1.68709C13.5652 1.70734 13.5652 1.72738 13.5652 1.74762C13.5652 1.76765 13.5652 1.7879 13.5652 1.80793C13.5652 1.82797 13.5652 1.848 13.5652 1.86803C13.5652 1.88786 13.5652 1.9079 13.5652 1.92772C13.5652 1.94776 13.5652 1.96758 13.5652 1.98741C13.5652 2.00723 13.5652 2.02706 13.5652 2.04668C13.5652 2.0665 13.5652 2.08612 13.5652 2.10595C13.5652 2.12557 13.5652 2.14518 13.5652 2.1648C13.5652 2.18442 13.5652 2.20382 13.5652 2.22344C13.5652 2.24285 13.5652 2.26247 13.5652 2.28188C13.5652 2.30129 13.5652 2.3207 13.5652 2.3401C13.5652 2.3593 13.5652 2.37871 13.5652 2.39791C13.5652 2.41732 13.5652 2.43652 13.5652 2.45572C13.5652 2.47492 13.5652 2.49412 13.5652 2.51332C13.5652 2.53231 13.5652 2.55152 13.5652 2.57051C13.5652 2.5895 13.5652 2.60849 13.5652 2.62748C13.5652 2.64647 13.5652 2.66546 13.5652 2.68424C13.5652 2.70323 13.5652 2.72202 13.5652 2.7408C13.5652 2.75979 13.5652 2.77857 13.5652 2.79715C13.5652 2.81593 13.5652 2.83472 13.5652 2.85329C13.5652 2.87207 13.5652 2.89064 13.5652 2.90922C13.5652 2.92779 13.5652 2.94637 13.5652 2.96494C13.5652 2.98351 13.5652 3.00188 13.5652 3.02025C13.5652 3.03882 13.5652 3.05718 13.5652 3.07555C13.5652 3.09391 13.5652 3.11228 13.5652 3.13043C13.5652 3.1488 13.5652 3.16696 13.5652 3.18532C13.5652 3.20348 13.5652 3.22164 13.5652 3.23979C13.5652 3.25795 13.5652 3.2761 13.5652 3.29405C13.5652 3.31221 13.5652 3.33016 13.5652 3.3481C13.5652 3.36605 13.5652 3.384 13.5652 3.40195C13.5652 3.4199 13.5652 3.43784 13.5652 3.45558C13.5652 3.47353 13.5652 3.49127 13.5652 3.50901C13.5652 3.52675 13.5652 3.54449 13.5652 3.56223C13.5652 3.57996 13.5652 3.5975 13.5652 3.61523C13.5652 3.63277 13.5652 3.6503 13.5652 3.66783C13.5652 3.68536 13.5652 3.70289 13.5652 3.72042C13.5652 3.73795 13.5652 3.75527 13.5652 3.7728C13.5652 3.79012 13.5652 3.80744 13.5652 3.82476C13.5652 3.84209 13.5652 3.85941 13.5652 3.87673C13.5652 3.89384 13.5652 3.91117 13.5652 3.92828C13.5652 3.94539 13.5652 3.96251 13.5652 3.97962C13.5652 3.99673 13.5652 4.01384 13.5652 4.03096C13.5652 4.04786 13.5652 4.06497 13.5652 4.08188C13.5652 4.09878 13.5652 4.11569 13.5652 4.13259C13.5652 4.1495 13.5652 4.1664 13.5652 4.1831C13.5652 4.2 13.5652 4.2167 13.5652 4.23339C13.5652 4.2503 13.5652 4.26699 13.5652 4.28348C13.5652 4.30017 13.5652 4.31687 13.5652 4.33336C13.5652 4.35005 13.5652 4.36654 13.5652 4.38323C13.5652 4.39972 13.5652 4.41621 13.5652 4.4327C13.5652 4.44897 13.5652 4.46546 13.5652 4.48174C13.5652 4.49823 13.5652 4.5145 13.5652 4.53078C13.5652 4.54727 13.5652 4.56355 13.5652 4.57962C13.5652 4.5959 13.5652 4.61217 13.5652 4.62824C13.5652 4.64452 13.5652 4.66059 13.5652 4.67666C13.5652 4.69273 13.5652 4.7088 13.5652 4.72487C13.5652 4.74094 13.5652 4.7568 13.5652 4.77287C13.5652 4.78873 13.5652 4.8048 13.5652 4.82066C13.5652 4.83652 13.5652 4.85238 13.5652 4.86803C13.5652 4.8839 13.5652 4.89976 13.5652 4.91541C13.5652 4.93127 13.5652 4.94692 13.5652 4.96257C13.5652 4.97823 13.5652 4.99388 13.5652 5.00953C13.5652 5.02518 13.5652 5.04063 13.5652 5.05628C13.5652 5.07172 13.5652 5.08717 13.5652 5.10282C13.5652 5.11826 13.5652 5.13371 13.5652 5.14894C13.5652 5.16438 13.5652 5.17983 13.5652 5.19506C13.5652 5.2105 13.5652 5.22574 13.5652 5.24097C13.5652 5.25621 13.5652 5.27144 13.5652 5.28668C13.5652 5.30191 13.5652 5.31694 13.5652 5.33217C13.5652 5.3472 13.5652 5.36223 13.5652 5.37725C13.5652 5.39249 13.5652 5.40751 13.5652 5.42233C13.5652 5.43736 13.5652 5.45238 13.5652 5.4672C13.5652 5.48223 13.5652 5.49704 13.5652 5.51186C13.5652 5.52668 13.5652 5.5415 13.5652 5.55631C13.5652 5.57113 13.5652 5.58595 13.5652 5.60056C13.5652 5.61537 13.5652 5.62998 13.5652 5.64459C13.5652 5.6592 13.5652 5.67381 13.5652 5.68842C13.5652 5.70303 13.5652 5.71764 13.5652 5.73204C13.5652 5.74664 13.5652 5.76104 13.5652 5.77544C13.5652 5.78984 13.5652 5.80424 13.5652 5.81864C13.5652 5.83304 13.5652 5.84744 13.5652 5.86163C13.5652 5.87603 13.5652 5.89023 13.5652 5.90463C13.5652 5.91882 13.5652 5.93301 13.5652 5.9472C13.5652 5.96139 13.5652 5.97558 13.5652 5.98957C13.5652 6.00376 13.5652 6.01774 13.5652 6.03193C13.5652 6.04591 13.5652 6.0599 13.5652 6.07388C13.5652 6.08786 13.5652 6.10184 13.5652 6.11562C13.5652 6.1296 13.5652 6.14358 13.5652 6.15736C13.5652 6.17113 13.5652 6.1849 13.5652 6.19868C13.5652 6.21245 13.5652 6.22623 13.5652 6.24C13.5652 6.25377 13.5652 6.26734 13.5652 6.28111C13.5652 6.29468 13.5652 6.30824 13.5652 6.32181C13.5652 6.33558 13.5652 6.34915 13.5652 6.36251C13.5652 6.37607 13.5652 6.38963 13.5652 6.40299C13.5652 6.41656 13.5652 6.42991 13.5652 6.44327C13.5652 6.45663 13.5652 6.46998 13.5652 6.48334C13.5652 6.4967 13.5652 6.51005 13.5652 6.5232C13.5652 6.53656 13.5652 6.5497 13.5652 6.56285C13.5652 6.57621 13.5652 6.58936 13.5652 6.6025C13.5652 6.61565 13.5652 6.62859 13.5652 6.64174C13.5652 6.65489 13.5652 6.66783 13.5652 6.68076C13.5652 6.69391 13.5652 6.70685 13.5652 6.71979C13.5652 6.73273 13.5652 6.74567 13.5652 6.7584C13.5652 6.77134 13.5652 6.78428 13.5652 6.79701C13.5652 6.80974 13.5652 6.82268 13.5652 6.83541C13.5652 6.84814 13.5652 6.86087 13.5652 6.8736C13.5652 6.88633 13.5652 6.89885 13.5652 6.91158C13.5652 6.9241 13.5652 6.93683 13.5652 6.94936C13.5652 6.96188 13.5652 6.9744 13.5652 6.98692C13.5652 6.99944 13.5652 7.01197 13.5652 7.02428C13.5652 7.0368 13.5652 7.04911 13.5652 7.06164C13.5652 7.07395 13.5652 7.08626 13.5652 7.09857C13.5652 7.11089 13.5652 7.1232 13.5652 7.13551C13.5652 7.14762 13.5652 7.15993 13.5652 7.17203C13.5652 7.18435 13.5652 7.19645 13.5652 7.20856C13.5652 7.22066 13.5652 7.23277 13.5652 7.24487C13.5652 7.25697 13.5652 7.26908 13.5652 7.28097C13.5652 7.29308 13.5652 7.30497 13.5652 7.31687C13.5652 7.32876 13.5652 7.34087 13.5652 7.35277C13.5652 7.36445 13.5652 7.37635 13.5652 7.38824C13.5652 7.40014 13.5652 7.41183 13.5652 7.42351C13.5652 7.43541 13.5652 7.4471 13.5652 7.45878C13.5652 7.47047 13.5652 7.48216 13.5652 7.49384C13.5652 7.50553 13.5652 7.51701 13.5652 7.5287C13.5652 7.54017 13.5652 7.55186 13.5652 7.56334C13.5652 7.57482 13.5652 7.5863 13.5652 7.59777C13.5652 7.60925 13.5652 7.62073 13.5652 7.63221C13.5652 7.64348 13.5652 7.65496 13.5652 7.66623C13.5652 7.6775 13.5652 7.68897 13.5652 7.70024C13.5652 7.71151 13.5652 7.72278 13.5652 7.73405C13.5652 7.74511 13.5652 7.75638 13.5652 7.76765C13.5652 7.77871 13.5652 7.78977 13.5652 7.80104C13.5652 7.8121 13.5652 7.82316 13.5652 7.83423C13.5652 7.84529 13.5652 7.85635 13.5652 7.8672C13.5652 7.87826 13.5652 7.88932 13.5652 7.90017C13.5652 7.91103 13.5652 7.92209 13.5652 7.93294C13.5652 7.94379 13.5652 7.95464 13.5652 7.9655C13.5652 7.97614 13.5652 7.98699 13.5652 7.99784C13.5652 8.00849 13.5652 8.01934 13.5652 8.02998C13.5652 8.04063 13.5652 8.05127 13.5652 8.06191C13.5652 8.07256 13.5652 8.0832 13.5652 8.09384C13.5652 8.10449 13.5652 8.11492 13.5652 8.12557C13.5652 8.136 13.5652 8.14643 13.5652 8.15708C13.5652 8.16751 13.5652 8.17795 13.5652 8.18838C13.5652 8.19882 13.5652 8.20904 13.5652 8.21948C13.5652 8.22991 13.5652 8.24014 13.5652 8.25037C13.5652 8.2608 13.5652 8.27103 13.5652 8.28125C13.5652 8.29148 13.5652 8.3017 13.5652 8.31193C13.5652 8.32216 13.5652 8.33217 13.5652 8.3424C13.5652 8.35263 13.5652 8.36264 13.5652 8.37266C13.5652 8.38289 13.5652 8.3929 13.5652 8.40292C13.5652 8.41294 13.5652 8.42296 13.5652 8.43277C13.5652 8.44278 13.5652 8.4528 13.5652 8.46261C13.5652 8.47263 13.5652 8.48243 13.5652 8.49224C13.5652 8.50205 13.5652 8.51207 13.5652 8.52167C13.5652 8.53148 13.5652 8.54129 13.5652 8.5511C13.5652 8.5609 13.5652 8.5705 13.5652 8.58031C13.5652 8.58991 13.5652 8.59951 13.5652 8.60911C13.5652 8.61892 13.5652 8.62852 13.5652 8.63812C13.5652 8.64751 13.5652 8.65711 13.5652 8.66671C13.5652 8.6761 13.5652 8.6857 13.5652 8.6951C13.5652 8.7047 13.5652 8.71409 13.5652 8.72348C13.5652 8.73287 13.5652 8.74226 13.5652 8.75165C13.5652 8.76104 13.5652 8.77043 13.5652 8.77962C13.5652 8.78901 13.5652 8.79819 13.5652 8.80758C13.5652 8.81676 13.5652 8.82595 13.5652 8.83513C13.5652 8.84431 13.5652 8.8535 13.5652 8.86268C13.5652 8.87186 13.5652 8.88104 13.5652 8.89002C13.5652 8.8992 13.5652 8.90817 13.5652 8.91736C13.5652 8.92633 13.5652 8.9353 13.5652 8.94428C13.5652 8.95325 13.5652 8.96223 13.5652 8.9712C13.5652 8.98017 13.5652 8.98894 13.5652 8.99791C13.5652 9.00689 13.5652 9.01565 13.5652 9.02442C13.5652 9.03339 13.5652 9.04216 13.5652 9.05092C13.5652 9.05969 13.5652 9.06845 13.5652 9.07722C13.5652 9.08577 13.5652 9.09454 13.5652 9.10331C13.5652 9.11186 13.5652 9.12063 13.5652 9.12918C13.5652 9.13774 13.5652 9.1463 13.5652 9.15506C13.5652 9.16362 13.5652 9.17217 13.5652 9.18052C13.5652 9.18908 13.5652 9.19763 13.5652 9.20598C13.5652 9.21454 13.5652 9.22289 13.5652 9.23144C13.5652 9.23979 13.5652 9.24814 13.5652 9.25649C13.5652 9.26483 13.5652 9.27318 13.5652 9.28153C13.5652 9.28988 13.5652 9.29823 13.5652 9.30637C13.5652 9.31471 13.5652 9.32285 13.5652 9.3312C13.5652 9.33934 13.5652 9.34748 13.5652 9.35562C13.5652 9.36396 13.5652 9.37211 13.5652 9.38004C13.5652 9.38817 13.5652 9.39631 13.5652 9.40445C13.5652 9.41238 13.5652 9.42052 13.5652 9.42845C13.5652 9.43659 13.5652 9.44452 13.5652 9.45245C13.5652 9.46038 13.5652 9.46831 13.5652 9.47624C13.5652 9.48417 13.5652 9.4921 13.5652 9.49983C13.5652 9.50776 13.5652 9.51569 13.5652 9.52341C13.5652 9.53134 13.5652 9.53906 13.5652 9.54678C13.5652 9.5545 13.5652 9.56223 13.5652 9.56995C13.5652 9.57767 13.5652 9.58539 13.5652 9.59311C13.5652 9.60083 13.5652 9.60835 13.5652 9.61607C13.5652 9.62358 13.5652 9.6313 13.5652 9.63882C13.5652 9.64633 13.5652 9.65384 13.5652 9.66136C13.5652 9.66887 13.5652 9.67638 13.5652 9.6839C13.5652 9.69141 13.5652 9.69871 13.5652 9.70623C13.5652 9.71374 13.5652 9.72104 13.5652 9.72835C13.5652 9.73586 13.5652 9.74317 13.5652 9.75047C13.5652 9.75777 13.5652 9.76508 13.5652 9.77238C13.5652 9.77969 13.5652 9.78699 13.5652 9.79409C13.5652 9.80139 13.5652 9.8087 13.5652 9.81579C13.5652 9.82289 13.5652 9.83019 13.5652 9.83729C13.5652 9.84438 13.5652 9.85148 13.5652 9.85857C13.5652 9.86567 13.5652 9.87277 13.5652 9.87986C13.5652 9.88696 13.5652 9.89384 13.5652 9.90094C13.5652 9.90783 13.5652 9.91492 13.5652 9.92181C13.5652 9.9287 13.5652 9.93558 13.5652 9.94268C13.5652 9.94957 13.5652 9.95645 13.5652 9.96313C13.5652 9.97002 13.5652 9.97691 13.5652 9.98379C13.5652 9.99047 13.5652 9.99736 13.5652 10.004C13.5652 10.0109 13.5652 10.0176 13.5652 10.0243C13.5652 10.031 13.5652 10.0378 13.5652 10.0443C13.5652 10.051 13.5652 10.0577 13.5652 10.0643C13.5652 10.071 13.5652 10.0777 13.5652 10.0842C13.5652 10.0909 13.5652 10.0973 13.5652 10.1038C13.5652 10.1105 13.5652 10.1169 13.5652 10.1234C13.5652 10.1299 13.5652 10.1363 13.5652 10.1428C13.5652 10.1493 13.5652 10.1558 13.5652 10.162C13.5652 10.1685 13.5652 10.175 13.5652 10.1812C13.5652 10.1877 13.5652 10.1939 13.5652 10.2002C13.5652 10.2067 13.5652 10.2129 13.5652 10.2192C13.5652 10.2255 13.5652 10.2317 13.5652 10.238C13.5652 10.244 13.5652 10.2503 13.5652 10.2566C13.5652 10.2626 13.5652 10.2689 13.5652 10.2749C13.5652 10.2812 13.5652 10.2872 13.5652 10.2933C13.5652 10.2993 13.5652 10.3056 13.5652 10.3117C13.5652 10.3177 13.5652 10.3235 13.5652 10.3296C13.5652 10.3357 13.5652 10.3417 13.5652 10.3475C13.5652 10.3536 13.5652 10.3594 13.5652 10.3655C13.5652 10.3713 13.5652 10.3772 13.5652 10.3832C13.5652 10.3891 13.5652 10.3949 13.5652 10.4008C13.5652 10.4066 13.5652 10.4125 13.5652 10.4181C13.5652 10.4239 13.5652 10.4298 13.5652 10.4354C13.5652 10.4413 13.5652 10.4469 13.5652 10.4527C13.5652 10.4584 13.5652 10.464 13.5652 10.4698C13.5652 10.4755 13.5652 10.4811 13.5652 10.4867C13.5652 10.4924 13.5652 10.4978 13.5652 10.5034C13.5652 10.5091 13.5652 10.5147 13.5652 10.5201C13.5652 10.5258 13.5652 10.5312 13.5652 10.5368C13.5652 10.5423 13.5652 10.5477 13.5652 10.5531C13.5652 10.5587 13.5652 10.5642 13.5652 10.5696C13.5652 10.575 13.5652 10.5802 13.5652 10.5857C13.5652 10.5911 13.5652 10.5965 13.5652 10.6017C13.5652 10.6072 13.5652 10.6124 13.5652 10.6178C13.5652 10.623 13.5652 10.6282 13.5652 10.6335C13.5652 10.6389 13.5652 10.6441 13.5652 10.6493C13.5652 10.6545 13.5652 10.6598 13.5652 10.6648C13.5652 10.67 13.5652 10.6752 13.5652 10.6802C13.5652 10.6854 13.5652 10.6906 13.5652 10.6957C13.5652 10.7007 13.5652 10.7059 13.5652 10.7109C13.5652 10.7159 13.5652 10.7209 13.5652 10.7259C13.5652 10.7309 13.5652 10.7359 13.5652 10.7409C13.5652 10.7459 13.5652 10.751 13.5652 10.7558C13.5652 10.7608 13.5652 10.7658 13.5652 10.7706C13.5652 10.7756 13.5652 10.7804 13.5652 10.7852C13.5652 10.7902 13.5652 10.795 13.5652 10.7998C13.5652 10.8046 13.5652 10.8094 13.5652 10.8142C13.5652 10.819 13.5652 10.8238 13.5652 10.8284C13.5652 10.8332 13.5652 10.838 13.5652 10.8426C13.5652 10.8474 13.5652 10.852 13.5652 10.8568C13.5652 10.8614 13.5652 10.8659 13.5652 10.8705C13.5652 10.8753 13.5652 10.8799 13.5652 10.8845C13.5652 10.8891 13.5652 10.8937 13.5652 10.8981C13.5652 10.9027 13.5652 10.9073 13.5652 10.9119C13.5652 10.9162 13.5652 10.9208 13.5652 10.9252C13.5652 10.9298 13.5652 10.9342 13.5652 10.9386C13.5652 10.9432 13.5652 10.9475 13.5652 10.9519C13.5652 10.9563 13.5652 10.9607 13.5652 10.9651C13.5652 10.9695 13.5652 10.9738 13.5652 10.978C13.5652 10.9824 13.5652 10.9868 13.5652 10.991C13.5652 10.9953 13.5652 10.9995 13.5652 11.0039C13.5652 11.0081 13.5652 11.0125 13.5652 11.0166C13.5652 11.0208 13.5652 11.025 13.5652 11.0291C13.5652 11.0333 13.5652 11.0375 13.5652 11.0417C13.5652 11.0458 13.5652 11.05 13.5652 11.054C13.5652 11.0582 13.5652 11.0623 13.5652 11.0663C13.5652 11.0705 13.5652 11.0744 13.5652 11.0786C13.5652 11.0826 13.5652 11.0865 13.5652 11.0905C13.5652 11.0947 13.5652 11.0986 13.5652 11.1026C13.5652 11.1066 13.5652 11.1105 13.5652 11.1145C13.5652 11.1185 13.5652 11.1222 13.5652 11.1262C13.5652 11.1302 13.5652 11.1339 13.5652 11.1379C13.5652 11.1416 13.5652 11.1456 13.5652 11.1494C13.5652 11.1533 13.5652 11.1571 13.5652 11.1608C13.5652 11.1646 13.5652 11.1683 13.5652 11.1721C13.5652 11.1759 13.5652 11.1796 13.5652 11.1834C13.5652 11.1871 13.5652 11.1909 13.5652 11.1946C13.5652 11.1982 13.5652 11.2019 13.5652 11.2055C13.5652 11.2093 13.5652 11.2128 13.5652 11.2166C13.5652 11.2201 13.5652 11.2237 13.5652 11.2274C13.5652 11.231 13.5652 11.2345 13.5652 11.2381C13.5652 11.2416 13.5652 11.2451 13.5652 11.2487C13.5652 11.2522 13.5652 11.2558 13.5652 11.2591C13.5652 11.2627 13.5652 11.2662 13.5652 11.2696C13.5652 11.2731 13.5652 11.2767 13.5652 11.28C13.5652 11.2833 13.5652 11.2869 13.5652 11.2902C13.5652 11.2936 13.5652 11.2971 13.5652 11.3005C13.5652 11.3038 13.5652 11.3071 13.5652 11.3105C13.5652 11.3138 13.5652 11.3171 13.5652 11.3203C13.5652 11.3236 13.5652 11.327 13.5652 11.3303C13.5652 11.3334 13.5652 11.3368 13.5652 11.3399C13.5652 11.3432 13.5652 11.3464 13.5652 11.3497C13.5652 11.3528 13.5652 11.356 13.5652 11.3591C13.5652 11.3624 13.5652 11.3656 13.5652 11.3687C13.5652 11.3718 13.5652 11.375 13.5652 11.3781C13.5652 11.3812 13.5652 11.3841 13.5652 11.3873C13.5652 11.3904 13.5652 11.3935 13.5652 11.3965C13.5652 11.3996 13.5652 11.4025 13.5652 11.4056C13.5652 11.4086 13.5652 11.4117 13.5652 11.4146C13.5652 11.4175 13.5652 11.4207 13.5652 11.4236C13.5652 11.4265 13.5652 11.4294 13.5652 11.4323C13.5652 11.4353 13.5652 11.4382 13.5652 11.4411C13.5652 11.444 13.5652 11.447 13.5652 11.4497C13.5652 11.4526 13.5652 11.4555 13.5652 11.4582C13.5652 11.4611 13.5652 11.4639 13.5652 11.4668C13.5652 11.4695 13.5652 11.4724 13.5652 11.4751C13.5652 11.4778 13.5652 11.4808 13.5652 11.4835C13.5652 11.4862 13.5652 11.4889 13.5652 11.4916C13.5652 11.4943 13.5652 11.497 13.5652 11.4998C13.5652 11.5025 13.5652 11.5052 13.5652 11.5077C13.5652 11.5104 13.5652 11.5131 13.5652 11.5156C13.5652 11.5183 13.5652 11.5208 13.5652 11.5235C13.5652 11.5261 13.5652 11.5288 13.5652 11.5313C13.5652 11.534 13.5652 11.5365 13.5652 11.539C13.5652 11.5415 13.5652 11.544 13.5652 11.5465C13.5652 11.549 13.5652 11.5515 13.5652 11.554C13.5652 11.5565 13.5652 11.559 13.5652 11.5615C13.5652 11.564 13.5652 11.5665 13.5652 11.5688C13.5652 11.5713 13.5652 11.5738 13.5652 11.5761C13.5652 11.5786 13.5652 11.5809 13.5652 11.5832C13.5652 11.5857 13.5652 11.588 13.5652 11.5905C13.5652 11.5928 13.5652 11.5951 13.5652 11.5974C13.5652 11.5997 13.5652 11.602 13.5652 11.6043C13.5652 11.6066 13.5652 11.6089 13.5652 11.6112C13.5652 11.6135 13.5652 11.6158 13.5652 11.6181C13.5652 11.6204 13.5652 11.6225 13.5652 11.6248C13.5652 11.6271 13.5652 11.6291 13.5652 11.6314C13.5652 11.6335 13.5652 11.6358 13.5652 11.6379C13.5652 11.64 13.5652 11.6423 13.5652 11.6444C13.5652 11.6465 13.5652 11.6486 13.5652 11.6509C13.5652 11.6529 13.5652 11.655 13.5652 11.6571C13.5652 11.6592 13.5652 11.6613 13.5652 11.6634C13.5652 11.6655 13.5652 11.6673 13.5652 11.6694C13.5652 11.6715 13.5652 11.6736 13.5652 11.6755C13.5652 11.6776 13.5652 11.6797 13.5652 11.6815C13.5652 11.6836 13.5652 11.6855 13.5652 11.6876C13.5652 11.6895 13.5652 11.6913 13.5652 11.6934C13.5652 11.6953 13.5652 11.6972 13.5652 11.6991C13.5652 11.7011 13.5652 11.703 13.5652 11.7049C13.5652 11.7068 13.5652 11.7087 13.5652 11.7105C13.5652 11.7124 13.5652 11.7143 13.5652 11.716C13.5652 11.7178 13.5652 11.7197 13.5652 11.7216C13.5652 11.7233 13.5652 11.7251 13.5652 11.727C13.5652 11.7287 13.5652 11.7306 13.5652 11.7322C13.5652 11.7341 13.5652 11.7358 13.5652 11.7377C13.5652 11.7393 13.5652 11.741 13.5652 11.7429C13.5652 11.7446 13.5652 11.7462 13.5652 11.7479C13.5652 11.7496 13.5652 11.7514 13.5652 11.7531C13.5652 11.7548 13.5652 11.7565 13.5652 11.7581C13.5652 11.7598 13.5652 11.7613 13.5652 11.7629C13.5652 11.7646 13.5652 11.7663 13.5652 11.7679C13.5652 11.7694 13.5652 11.7711 13.5652 11.7727C13.5652 11.7742 13.5652 11.7759 13.5652 11.7773C13.5652 11.779 13.5652 11.7805 13.5652 11.7821C13.5652 11.7836 13.5652 11.785 13.5652 11.7867C13.5652 11.7882 13.5652 11.7896 13.5652 11.7913C13.5652 11.7928 13.5652 11.7942 13.5652 11.7957C13.5652 11.7971 13.5652 11.7986 13.5652 11.8001C13.5652 11.8015 13.5652 11.803 13.5652 11.8045C13.5652 11.8059 13.5652 11.8074 13.5652 11.8086C13.5652 11.8101 13.5652 11.8115 13.5652 11.813C13.5652 11.8143 13.5652 11.8157 13.5652 11.8172C13.5652 11.8184 13.5652 11.8199 13.5652 11.8211C13.5652 11.8226 13.5652 11.8239 13.5652 11.8253C13.5652 11.8266 13.5652 11.8278 13.5652 11.8293C13.5652 11.8305 13.5652 11.8318 13.5652 11.833C13.5652 11.8343 13.5652 11.8358 13.5652 11.837C13.5652 11.8383 13.5652 11.8395 13.5652 11.8408C13.5652 11.842 13.5652 11.8433 13.5652 11.8445C13.5652 11.8458 13.5652 11.847 13.5652 11.8481C13.5652 11.8493 13.5652 11.8506 13.5652 11.8518C13.5652 11.8529 13.5652 11.8541 13.5652 11.8554C13.5652 11.8564 13.5652 11.8577 13.5652 11.8589C13.5652 11.86 13.5652 11.8612 13.5652 11.8623C13.5652 11.8633 13.5652 11.8646 13.5652 11.8656C13.5652 11.8669 13.5652 11.8679 13.5652 11.8689C13.5652 11.8702 13.5652 11.8712 13.5652 11.8723C13.5652 11.8733 13.5652 11.8744 13.5652 11.8754C13.5652 11.8765 13.5652 11.8777 13.5652 11.8787C13.5652 11.8798 13.5652 11.8808 13.5652 11.8817C13.5652 11.8827 13.5652 11.8838 13.5652 11.8848C13.5652 11.8858 13.5652 11.8869 13.5652 11.8877C13.5652 11.8888 13.5652 11.8898 13.5652 11.8909C13.5652 11.8917 13.5652 11.8927 13.5652 11.8938C13.5652 11.8946 13.5652 11.8957 13.5652 11.8965C13.5652 11.8975 13.5652 11.8984 13.5652 11.8994C13.5652 11.9002 13.5652 11.9011 13.5652 11.9021C13.5652 11.903 13.5652 11.9038 13.5652 11.9048C13.5652 11.9057 13.5652 11.9065 13.5652 11.9073C13.5652 11.9082 13.5652 11.9092 13.5652 11.9101C13.5652 11.9109 13.5652 11.9117 13.5652 11.9126C13.5652 11.9134 13.5652 11.9142 13.5652 11.9151C13.5652 11.9159 13.5652 11.9167 13.5652 11.9176C13.5652 11.9184 13.5652 11.919 13.5652 11.9199C13.5652 11.9207 13.5652 11.9215 13.5652 11.9222C13.5652 11.923 13.5652 11.9238 13.5652 11.9247C13.5652 11.9253 13.5652 11.9261 13.5652 11.9267C13.5652 11.9276 13.5652 11.9282 13.5652 11.929C13.5652 11.9299 13.5652 11.9305 13.5652 11.9311C13.5652 11.932 13.5652 11.9326 13.5652 11.9334C13.5652 11.9341 13.5652 11.9347 13.5652 11.9355C13.5652 11.9349 13.5652 11.9361 13.5652 11.9355C13.5652 11.9363 13.5652 11.9389 13.5652 11.9395C13.5652 11.9389 13.5652 11.9401 13.5652 11.9395C13.5652 11.9401 13.5652 11.9426 13.5652 11.9432C13.5652 11.9426 13.5652 11.9439 13.5652 11.9432C13.5652 11.9439 13.5652 11.9464 13.5652 11.947C13.5652 11.9464 13.5652 11.9476 13.5652 11.947C13.5652 11.9476 13.5652 11.9499 13.5652 11.9505C13.5652 11.9501 13.5652 11.9512 13.5652 11.9505C13.5652 11.9512 13.5652 11.9535 13.5652 11.9539C13.5652 11.9533 13.5652 11.9545 13.5652 11.9539C13.5652 11.9545 13.5652 11.9566 13.5652 11.9572C13.5652 11.9568 13.5652 11.9576 13.5652 11.9572C13.5652 11.9576 13.5652 11.9597 13.5652 11.9601C13.5652 11.9597 13.5652 11.9608 13.5652 11.9601C13.5652 11.9608 13.5652 11.9626 13.5652 11.9631C13.5652 11.9626 13.5652 11.9635 13.5652 11.9631C13.5652 11.9635 13.5652 11.9654 13.5652 11.9658C13.5652 11.9654 13.5652 11.9664 13.5652 11.9658C13.5652 11.9662 13.5652 11.9681 13.5652 11.9685C13.5652 11.9681 13.5652 11.9689 13.5652 11.9685C13.5652 11.9689 13.5652 11.9706 13.5652 11.971C13.5652 11.9706 13.5652 11.9714 13.5652 11.971C13.5652 11.9714 13.5652 11.9729 13.5652 11.9733C13.5652 11.9729 13.5652 11.9737 13.5652 11.9733C13.5652 11.9735 13.5652 11.9752 13.5652 11.9756C13.5652 11.976 13.5652 11.9783 13.5652 11.9787C13.5652 11.9789 13.5652 11.9812 13.5652 11.9814C13.5652 11.9816 13.5652 11.9837 13.5652 11.9839C13.5652 11.9841 13.5652 11.986 13.5652 11.9864C13.5652 11.9866 13.5652 11.9881 13.5652 11.9885C13.5652 11.9887 13.5652 11.9906 13.5652 11.9908C13.5652 11.9906 13.5652 11.991 13.5652 11.9908C13.5652 11.991 13.5652 11.9927 13.5652 11.9929C13.5652 11.9931 13.5652 11.9952 13.5652 11.9954C13.5652 11.9954 13.5652 11.9973 13.5652 11.9975C13.5652 11.9977 13.5652 12 13.5652 12H10.4348ZM13.5652 12V22.4348H10.4348V12H13.5652Z" fill="white"/>
</svg>
