<svg width="669" height="676" viewBox="0 0 669 676" fill="none" xmlns="http://www.w3.org/2000/svg">
<path d="M255.229 319.46C214.699 319.46 194.539 343.43 194.539 386.84C194.539 430.25 216.119 451.88 262.289 451.88C297.169 451.88 317.539 434.11 317.539 401.26H312.099C312.099 432.44 293.339 447.02 262.289 447.02C231.239 447.02 223.169 430.76 222.769 389.7H317.539C317.939 344.44 297.579 319.47 255.229 319.47M222.769 385.51C222.969 341.09 231.439 324 255.439 324C279.439 324 289.109 341.26 289.319 385.51H222.779H222.769Z" fill="#802012"/>
<path d="M421.97 333.53C417.54 323.15 409.87 319.46 398.77 319.46C385.68 319.46 376.4 325.32 371.77 342.1V326.64V322.45H324.18V326.64H371.73L347.94 344.09V444.32H324.16V448.51H397.55V444.32H373.77V376.29C373.77 339.92 379.61 324.32 398.77 324.32C414.71 324.32 421.97 333.21 421.97 370.4V375.26H427.02V322.44H421.97V333.52V333.53Z" fill="#802012"/>
<path d="M133.209 254.46V351.82C131.199 346.78 124.149 336.05 103.779 336.05C66.6794 336.05 48.1094 356.68 48.1094 393.87C48.1094 431.06 66.6694 451.89 103.779 451.89C117.299 451.89 127.519 446.11 133.199 433.54C133.199 448.8 143.079 451.83 159.809 451.83C174.309 451.83 177.749 446.46 177.749 428.68V415.95H172.699V428.34C172.699 440.93 171.289 445.47 165.249 445.47C160.599 445.47 159.019 443.01 159.019 432.12L158.989 273.45L133.279 254.48H180.689V250.29H133.199V254.47L133.209 254.46ZM133.209 407.96C133.209 430.43 127.759 447.36 103.579 447.36C82.6094 447.36 76.3394 435.44 76.3394 393.39C76.3394 351.34 81.1694 340.57 103.369 340.57C120.099 340.57 133.199 347.11 133.199 371.93V407.96H133.209Z" fill="#802012"/>
<path d="M469.639 322.46C459.259 322.46 452.799 327.22 447.519 338.57C442.999 348.28 441.419 352.3 441.419 352.3H465.519C465.519 351.97 478.509 326.65 478.509 326.65H517.379L509.649 338.62H509.629L508.609 340.22C501.029 352.12 481.259 383.14 473.679 395.02L468.459 403.33L461.999 413.49H462.019L451.869 429.46L472.179 444.33H432.779V448.51C432.779 448.51 523.879 448.51 523.899 448.51C538.429 448.51 546.469 437.1 548.359 432.62C552.489 422.87 556.259 415.06 556.199 414.85L532.659 414.42C532.659 414.66 517.369 444.35 517.369 444.35H472.229L547.629 326.66H557.329V322.47H469.669L469.639 322.46Z" fill="#802012"/>
<path d="M600.381 281.3V311.67L630.661 281.3H600.381Z" fill="#802012"/>
<path d="M598.351 444.33H574.631V448.52H647.891V444.33H598.351Z" fill="#802012"/>
<path d="M624.16 326.57H647.83V322.46H574.65V326.65H598.35V444.33L624.16 425.35V326.57Z" fill="#802012"/>
<path d="M240.56 617.94C239.29 616.73 237.85 615.84 236.25 615.28C234.65 614.72 233 614.43 231.29 614.43C228.49 614.43 226.04 615.09 223.95 616.42C221.86 617.75 220.23 619.6 219.07 621.96C217.91 624.33 217.33 627.06 217.33 630.17C217.33 633.28 217.91 636.05 219.07 638.38C220.23 640.71 221.88 642.52 224.02 643.8C226.16 645.08 228.72 645.72 231.7 645.72C233.9 645.72 235.87 645.38 237.59 644.7C239.31 644.02 240.75 643.07 241.9 641.84C243.05 640.61 243.84 639.17 244.29 637.53L238.72 636.52C238.37 637.47 237.86 638.26 237.19 638.91C236.52 639.56 235.73 640.04 234.81 640.36C233.89 640.68 232.88 640.84 231.76 640.84C230.04 640.84 228.54 640.47 227.26 639.73C225.98 638.99 224.98 637.9 224.26 636.48C223.6 635.16 223.25 633.57 223.21 631.73H244.66V629.64C244.66 626.89 244.29 624.56 243.56 622.63C242.83 620.7 241.82 619.13 240.55 617.92M223.23 627.33C223.3 626.03 223.61 624.81 224.19 623.67C224.85 622.38 225.8 621.32 227.02 620.51C228.25 619.7 229.69 619.3 231.34 619.3C232.86 619.3 234.19 619.65 235.32 620.35C236.45 621.05 237.33 622 237.96 623.2C238.59 624.4 238.9 625.78 238.9 627.33H223.22H223.23Z" fill="#802012"/>
<path d="M270.62 628.16L265.82 627.05C264.15 626.66 262.95 626.15 262.2 625.53C261.45 624.91 261.08 624.1 261.08 623.08C261.08 621.91 261.64 620.95 262.75 620.21C263.86 619.47 265.25 619.1 266.92 619.1C268.14 619.1 269.16 619.3 269.97 619.69C270.78 620.08 271.43 620.59 271.91 621.21C272.39 621.83 272.74 622.48 272.96 623.16L278.29 622.21C277.69 619.84 276.45 617.95 274.57 616.54C272.7 615.13 270.13 614.42 266.86 614.42C264.59 614.42 262.58 614.8 260.82 615.56C259.06 616.32 257.69 617.36 256.69 618.71C255.7 620.05 255.2 621.62 255.2 623.4C255.2 625.56 255.87 627.34 257.21 628.75C258.55 630.16 260.63 631.18 263.46 631.83L268.57 632.95C270.01 633.28 271.08 633.77 271.79 634.41C272.49 635.06 272.84 635.85 272.84 636.8C272.84 637.97 272.26 638.96 271.11 639.77C269.96 640.58 268.42 640.98 266.49 640.98C264.72 640.98 263.29 640.6 262.18 639.85C261.08 639.09 260.35 637.97 260 636.49L254.32 637.36C254.8 640.04 256.12 642.11 258.25 643.56C260.39 645.01 263.15 645.74 266.53 645.74C268.97 645.74 271.12 645.34 272.97 644.54C274.82 643.74 276.27 642.63 277.32 641.22C278.36 639.81 278.88 638.19 278.88 636.38C278.88 634.24 278.2 632.49 276.83 631.15C275.47 629.81 273.4 628.82 270.62 628.17" fill="#802012"/>
<path d="M302.519 640.17C302.169 640.24 301.749 640.27 301.279 640.27C300.639 640.27 300.049 640.17 299.499 639.96C298.959 639.76 298.509 639.37 298.169 638.8C297.829 638.23 297.659 637.37 297.659 636.23V619.56H303.849V614.83H297.659V607.57H291.779V614.83H287.359V619.56H291.779V637.45C291.779 639.28 292.189 640.8 293.019 642.01C293.849 643.22 294.929 644.11 296.269 644.69C297.609 645.27 299.049 645.55 300.599 645.52C301.539 645.51 302.329 645.43 302.959 645.29C303.589 645.15 304.079 645.02 304.419 644.89L303.359 640.02C303.159 640.06 302.889 640.11 302.539 640.18" fill="#802012"/>
<path d="M318.651 637.63C317.571 637.63 316.651 638.02 315.881 638.78C315.111 639.55 314.721 640.47 314.721 641.55C314.721 642.63 315.111 643.57 315.881 644.34C316.651 645.11 317.581 645.49 318.651 645.49C319.371 645.49 320.031 645.31 320.621 644.96C321.211 644.61 321.681 644.13 322.051 643.53C322.421 642.93 322.591 642.27 322.591 641.55C322.591 640.47 322.201 639.55 321.431 638.78C320.661 638.01 319.731 637.63 318.661 637.63" fill="#802012"/>
<path d="M268.65 167.17H427.35V134.94H283.07L268.65 167.17Z" fill="#802012"/>
<path d="M296.38 97.2099V117.23L297.83 122.77L299.29 117.23V97.2099H302.89C302.89 97.2099 303.28 72.9599 323.01 72.9599H365.12C378.89 72.9599 388.5 81.2299 388.5 98.1399C388.5 116.28 380.75 125.25 355.99 125.25V127.74H417.68V42.9699H415.2V66.1199L397.12 48.3699L325.13 53.8199C316.88 54.4399 308.98 50.3499 304.72 43.2299L299.28 34.1499H292.75V93.8899L296.37 97.2299L296.38 97.2099Z" fill="#802012"/>
<path d="M427.349 49.46H424.869V81.87H427.349V49.46Z" fill="#802012"/>
<path d="M352.321 645.23V641.09L365.081 627.83C366.441 626.39 367.571 625.12 368.461 624.04C369.351 622.95 370.021 621.91 370.461 620.93C370.901 619.95 371.121 618.9 371.121 617.79C371.121 616.53 370.831 615.45 370.241 614.53C369.651 613.61 368.851 612.9 367.831 612.41C366.811 611.91 365.661 611.66 364.391 611.66C363.041 611.66 361.861 611.94 360.861 612.49C359.851 613.04 359.081 613.83 358.541 614.84C358.001 615.85 357.731 617.03 357.731 618.38H352.301C352.301 616.08 352.831 614.07 353.881 612.34C354.941 610.62 356.381 609.28 358.221 608.32C360.061 607.37 362.151 606.89 364.501 606.89C366.851 606.89 368.961 607.36 370.771 608.3C372.581 609.24 373.991 610.52 375.011 612.14C376.031 613.76 376.541 615.58 376.541 617.61C376.541 619.01 376.281 620.39 375.761 621.73C375.241 623.07 374.331 624.56 373.051 626.21C371.761 627.85 369.971 629.84 367.671 632.18L360.181 640.05V640.33H377.151V645.22H352.341L352.321 645.23Z" fill="#802012"/>
<path d="M401.342 645.86C398.432 645.85 395.952 645.08 393.882 643.55C391.822 642.02 390.242 639.8 389.152 636.88C388.062 633.96 387.512 630.45 387.512 626.34C387.512 622.23 388.062 618.74 389.162 615.83C390.262 612.93 391.842 610.71 393.912 609.18C395.982 607.65 398.452 606.89 401.342 606.89C404.232 606.89 406.702 607.66 408.762 609.19C410.822 610.72 412.402 612.94 413.502 615.84C414.602 618.74 415.152 622.24 415.152 626.34C415.152 630.44 414.602 633.98 413.512 636.89C412.422 639.8 410.842 642.02 408.782 643.55C406.722 645.08 404.242 645.85 401.342 645.85V645.86ZM401.342 640.93C403.892 640.93 405.892 639.68 407.332 637.18C408.772 634.68 409.492 631.07 409.492 626.34C409.492 623.2 409.162 620.55 408.512 618.37C407.852 616.2 406.912 614.55 405.692 613.42C404.472 612.29 403.022 611.73 401.342 611.73C398.802 611.73 396.812 612.99 395.362 615.5C393.912 618.01 393.182 621.62 393.172 626.34C393.172 629.49 393.502 632.15 394.152 634.32C394.812 636.49 395.742 638.14 396.962 639.25C398.172 640.36 399.632 640.92 401.342 640.92V640.93Z" fill="#802012"/>
<path d="M425.791 645.23V641.09L438.551 627.83C439.911 626.39 441.041 625.12 441.931 624.04C442.821 622.95 443.491 621.91 443.931 620.93C444.371 619.95 444.591 618.9 444.591 617.79C444.591 616.53 444.301 615.45 443.711 614.53C443.121 613.61 442.321 612.9 441.301 612.41C440.281 611.91 439.131 611.66 437.861 611.66C436.511 611.66 435.331 611.94 434.331 612.49C433.321 613.04 432.551 613.83 432.011 614.84C431.471 615.85 431.201 617.03 431.201 618.38H425.771C425.771 616.08 426.301 614.07 427.351 612.34C428.411 610.62 429.851 609.28 431.691 608.32C433.531 607.37 435.621 606.89 437.971 606.89C440.321 606.89 442.431 607.36 444.241 608.3C446.051 609.24 447.461 610.52 448.481 612.14C449.501 613.76 450.011 615.58 450.011 617.61C450.011 619.01 449.751 620.39 449.231 621.73C448.711 623.07 447.801 624.56 446.521 626.21C445.231 627.85 443.441 629.84 441.141 632.18L433.651 640.05V640.33H450.621V645.22H425.811L425.791 645.23Z" fill="#802012"/>
<path d="M474.121 645.75C471.811 645.75 469.741 645.3 467.911 644.41C466.081 643.52 464.611 642.29 463.521 640.73C462.431 639.17 461.841 637.38 461.771 635.38H467.291C467.421 637 468.141 638.34 469.441 639.39C470.741 640.44 472.301 640.96 474.121 640.96C475.571 640.96 476.851 640.62 477.981 639.95C479.101 639.28 479.991 638.35 480.631 637.17C481.271 635.99 481.601 634.64 481.601 633.13C481.601 631.62 481.271 630.22 480.611 629.01C479.951 627.8 479.041 626.86 477.881 626.17C476.721 625.48 475.391 625.13 473.891 625.12C472.751 625.12 471.601 625.32 470.451 625.71C469.301 626.1 468.361 626.62 467.651 627.26L462.441 626.48L464.561 607.42H485.291V612.31H469.291L468.091 622.89H468.311C469.051 622.18 470.021 621.58 471.251 621.1C472.471 620.62 473.781 620.38 475.181 620.38C477.471 620.38 479.521 620.93 481.321 622.02C483.121 623.12 484.531 624.61 485.571 626.5C486.611 628.39 487.121 630.56 487.111 633.01C487.121 635.46 486.571 637.64 485.461 639.57C484.351 641.49 482.821 643 480.861 644.1C478.901 645.2 476.661 645.75 474.131 645.75H474.121Z" fill="#802012"/>
</svg>
