<svg width="937" height="269" viewBox="0 0 937 269" fill="none" xmlns="http://www.w3.org/2000/svg">
<path d="M517.229 108.45C476.699 108.45 456.539 132.42 456.539 175.83C456.539 219.24 478.119 240.87 524.289 240.87C559.169 240.87 579.539 223.1 579.539 190.25H574.099C574.099 221.43 555.339 236.01 524.289 236.01C493.239 236.01 485.169 219.75 484.769 178.69H579.539C579.939 133.43 559.579 108.46 517.229 108.46M484.769 174.49C484.969 130.07 493.439 112.98 517.439 112.98C541.439 112.98 551.109 130.24 551.319 174.49H484.779H484.769Z" fill="white"/>
<path d="M683.97 122.52C679.54 112.14 671.87 108.45 660.77 108.45C647.68 108.45 638.4 114.31 633.77 131.09V115.63V111.44H586.18V115.63H633.73L609.94 133.08V233.31H586.16V237.5H659.55V233.31H635.77V165.28C635.77 128.91 641.61 113.31 660.77 113.31C676.71 113.31 683.97 122.2 683.97 159.39V164.25H689.02V111.43H683.97V122.51V122.52Z" fill="white"/>
<path d="M395.209 43.4503V140.81C393.199 135.77 386.149 125.04 365.779 125.04C328.679 125.04 310.109 145.67 310.109 182.86C310.109 220.05 328.669 240.88 365.779 240.88C379.299 240.88 389.519 235.1 395.199 222.53C395.199 237.79 405.079 240.82 421.809 240.82C436.309 240.82 439.749 235.45 439.749 217.67V204.94H434.699V217.33C434.699 229.92 433.289 234.46 427.249 234.46C422.599 234.46 421.019 232 421.019 221.11L420.989 62.4402L395.279 43.4702H442.689V39.2803H395.199V43.4603L395.209 43.4503ZM395.209 196.95C395.209 219.42 389.759 236.35 365.579 236.35C344.609 236.35 338.339 224.43 338.339 182.38C338.339 140.33 343.169 129.56 365.369 129.56C382.099 129.56 395.199 136.1 395.199 160.92V196.95H395.209Z" fill="white"/>
<path d="M731.639 111.44C721.259 111.44 714.799 116.2 709.519 127.55C704.999 137.26 703.419 141.28 703.419 141.28H727.519C727.519 140.95 740.509 115.63 740.509 115.63H779.379L771.649 127.6H771.629L770.609 129.2C763.029 141.1 743.259 172.12 735.679 184L730.459 192.31L723.999 202.47H724.019L713.869 218.44L734.179 233.31H694.779V237.49C694.779 237.49 785.879 237.49 785.899 237.49C800.429 237.49 808.469 226.08 810.359 221.6C814.489 211.85 818.259 204.04 818.199 203.83L794.659 203.4C794.659 203.64 779.369 233.33 779.369 233.33H734.229L809.629 115.64H819.329V111.45H731.669L731.639 111.44Z" fill="white"/>
<path d="M862.381 70.2803V100.66L892.661 70.2803H862.381Z" fill="white"/>
<path d="M860.351 233.32H836.631V237.51H909.891V233.32H860.351Z" fill="white"/>
<path d="M886.16 115.56H909.83V111.44H836.65V115.63H860.35V233.32L886.16 214.33V115.56Z" fill="white"/>
<path d="M30 233.32H261.517V186.302H51.0364L30 233.32Z" fill="white"/>
<path d="M70.4518 131.274V160.48L72.5671 168.562L74.697 160.48V131.274H79.9489C79.9489 131.274 80.5178 95.8977 109.301 95.8977H170.732C190.82 95.8977 204.84 107.962 204.84 132.631C204.84 159.094 193.534 172.18 157.413 172.18V175.813H247.409V52.1472H243.791V85.9192L217.415 60.0249L112.393 67.9755C100.358 68.88 88.8332 62.9134 82.6185 52.5265L74.6824 39.2803H65.1562V126.431L70.4372 131.304L70.4518 131.274Z" fill="white"/>
<path d="M261.516 61.6006H257.898V108.881H261.516V61.6006Z" fill="white"/>
</svg>
